<mxfile host="app.diagrams.net" modified="2024-04-23T05:42:08.844Z" agent="Mozilla/5.0 (Windows NT 10.0; Win64; x64) AppleWebKit/537.36 (KHTML, like Gecko) Chrome/124.0.0.0 Safari/537.36" version="23.1.6" etag="YqtO2qFlOgb7IWPmUEek" type="github">
  <diagram name="Trang-1" id="Lr4RGwodNTXI4KehB1Ui">
    <mxGraphModel>
      <root>
        <mxCell id="0" />
        <mxCell id="1" parent="0" />
      </root>
    </mxGraphModel>
  </diagram>
</mxfile>
